<svg xmlns="http://www.w3.org/2000/svg" viewBox="0 0 240 277">
  <path fill="#DEDEDE" d="M213.4 82.2l4.3-4.3c6.2-6.2 7.3-15.1 2.5-19.9-4.8-4.8-13.8-3.7-19.9 2.5l-4.3 4.3c-16.8-13.6-37.3-22.7-59.8-25.6v-7.7h6.1c8.7 0 15.9-7 15.9-15.5S151.1.5 142.3.5H99.7C91 .5 83.8 7.5 83.8 16S91 31.5 99.7 31.5h6.1v7.7c-58.6 7.5-104 57.5-104 118.2 0 65.8 53.4 119.2 119.2 119.2 65.8 0 119.2-53.4 119.2-119.2 0-28.5-10.1-54.7-26.8-75.2zM121 245.5c-48.7 0-88.1-39.4-88.1-88.1 0-48.7 39.4-88.1 88.1-88.1 48.7 0 88.1 39.4 88.1 88.1 0 48.6-39.4 88.1-88.1 88.1z"/>
  <path fill="#D22856" d="M121 56.1c-55.8 0-101 45.2-101 101s45.2 101 101 101 101-45.2 101-101-45.2-101-101-101zm0 189.4c-48.6 0-88-39.4-88-88s39.4-88 88-88 88 39.4 88 88-39.4 88-88 88z"/>
  <path fill="#D22856" d="M116.8 180.4h-30v-.7l8.9-8.4c5.9-5.4 10-9.6 12.4-12.5 2.3-2.9 4.1-5.8 5.2-8.6 1.1-2.8 1.7-5.8 1.7-8.9 0-3.6-.9-6.9-2.7-9.7-1.8-2.8-4.4-5-7.7-6.6-3.3-1.6-7.1-2.4-11.4-2.4-3.3 0-6.2.3-8.9 1-2.6.6-5.1 1.6-7.3 2.8-2.2 1.2-5.1 3.2-8.4 6.1l7.9 9.4c2.7-2.3 5.4-4 7.9-5.2 2.5-1.2 5.1-1.8 7.8-1.8 2.5 0 4.6.7 6.1 2 1.5 1.4 2.3 3.4 2.3 6.2 0 1.9-.3 3.7-1 5.4-.7 1.7-1.8 3.6-3.4 5.6-1.6 2-4.9 5.7-10.1 10.9l-17.3 17.5v10.1H117v-12.2zM173.6 167h-8.3v-43.4h-13.5l-30.3 44.6v10.1H151v14.3h14.3v-14.3h8.3V167zm-39.2 0l12.7-19.1c1.6-2.5 3-5 4.2-7.6h.4c-.1.6-.2 2.8-.4 6.5s-.2 6.5-.2 8.5V167h-16.7z"/>
</svg>
